<?xml version="1.0" encoding="utf-8"?>
<!-- Generator: Adobe Illustrator 16.0.0, SVG Export Plug-In . SVG Version: 6.00 Build 0)  -->
<!DOCTYPE svg PUBLIC "-//W3C//DTD SVG 1.1//EN" "http://www.w3.org/Graphics/SVG/1.1/DTD/svg11.dtd">
<svg version="1.1" id="Layer_1" xmlns="http://www.w3.org/2000/svg" xmlns:xlink="http://www.w3.org/1999/xlink" x="0px" y="0px"
	 width="850.389px" height="1133.859px" viewBox="0 0 850.389 1133.859" enable-background="new 0 0 850.389 1133.859"
	 xml:space="preserve">
<path fill="#17699A" d="M850.389,566.93c0-234.791-190.403-425.194-425.194-425.194S0,332.139,0,566.93
	s190.403,425.195,425.194,425.195S850.389,801.721,850.389,566.93z"/>
<path fill="#823D0F" d="M425.195,992.125c120.309,0,228.964-50.043,306.257-130.249c-4.799-25.879-9.598-49.529-14.225-64.097
	c-14.567-46.787-139.161-84.49-292.718-84.49s-276.779,37.703-291.347,84.49c-4.456,14.567-9.426,38.047-14.225,64.097
	C196.231,942.082,304.886,992.125,425.195,992.125z"/>
<path fill="#F3FAFF" d="M503.687,717.916c-24.851-3.085-51.414-4.627-79.007-4.627c-27.249,0-53.471,1.542-77.978,4.627
	l78.492,155.956L503.687,717.916z"/>
<rect x="351.501" y="698.55" fill="#DEE0E2" width="147.387" height="42.846"/>
<path fill="#E2A379" d="M425.195,847.994l-64.782-131.62c0,0,15.768-21.252,64.097-21.252s65.296,21.423,65.296,21.423
	L425.195,847.994z"/>
<g>
	<path fill="#F3FAFF" d="M288.09,753.906l63.411-55.356l54.842,109.513c0,0-43.188,12.168-43.702,11.653L288.09,753.906z"/>
	<path fill="#F3FAFF" d="M562.299,753.906l-63.411-55.356l-54.842,109.513c0,0,43.188,12.168,43.702,11.653L562.299,753.906z"/>
	<path fill="#F3FAFF" d="M731.451,861.704c-4.799-25.878-9.598-49.528-14.225-64.096c-9.94-32.22-72.151-60.155-159.898-74.38
		l64.611,220.738C662.899,922.544,699.746,894.609,731.451,861.704z"/>
	<path fill="#F3FAFF" d="M133.162,797.779c-4.456,14.567-9.426,38.047-14.225,64.097c31.534,32.733,68.21,60.325,108.655,81.748
		l64.439-220.053C204.628,737.625,143.103,765.56,133.162,797.779z"/>
</g>
<path fill="#E2A379" d="M491.862,625.199H358.528c20.737,62.726,1.714,91.346,1.714,91.346s28.963,10.454,64.953,10.454
	s64.953-10.454,64.953-10.454S471.124,687.925,491.862,625.199z"/>
<path fill="#F4B382" d="M576.524,441.993c0-158.355-67.695-194.688-151.329-194.688c-83.462,0-151.329,36.333-151.329,194.688
	c0,53.643,10.626,95.631,26.564,128.021c34.961,71.294,95.459,96.145,124.765,96.145s89.804-24.851,124.765-96.145
	C565.898,537.624,576.524,495.636,576.524,441.993z"/>
<g>
	<path fill="#191919" d="M424.338,643.708h0.856C424.852,643.708,424.68,643.708,424.338,643.708L424.338,643.708z"/>
	<path fill="#191919" d="M426.051,643.708L426.051,643.708c-0.342,0-0.514,0-0.856,0H426.051z"/>
</g>
<g>
	<path fill="#F4B382" d="M292.032,550.82c-14.396,2.399-24.679,0.171-32.734-47.473c-8.055-47.644,2.914-53.984,17.31-56.384
		L292.032,550.82z"/>
	<path fill="#F4B382" d="M558.529,550.82c14.396,2.399,24.507,0.171,32.733-47.473s-2.913-53.984-17.31-56.384L558.529,550.82z"/>
</g>
<g>
	<path fill="#261D17" d="M372.067,516.373c-20.395,0-36.847-16.453-36.847-36.847c0-20.395,16.452-36.848,36.847-36.848
		s36.847,16.453,36.847,36.848C408.913,499.92,392.461,516.373,372.067,516.373z M372.067,451.248
		c-15.596,0-28.277,12.683-28.277,28.278c0,15.595,12.682,28.277,28.277,28.277s28.277-12.683,28.277-28.277
		C400.344,463.931,387.662,451.248,372.067,451.248z"/>
	<path fill="#261D17" d="M425.024,465.473c-17.652,0-19.538,9.426-19.023,14.91c-0.343,4.627,0.686,8.397,0.686,8.397
		c3.428-7.026,10.454-11.482,18.166-11.482s14.91,4.456,18.166,11.482c0,0,1.028-3.771,0.686-8.397
		C444.561,475.07,442.675,465.473,425.024,465.473z"/>
	<path fill="#261D17" d="M478.323,516.373c-20.395,0-36.847-16.453-36.847-36.847c0-20.395,16.452-36.848,36.847-36.848
		s36.847,16.453,36.847,36.848C515.169,499.92,498.717,516.373,478.323,516.373z M478.323,451.248
		c-15.596,0-28.277,12.683-28.277,28.278c0,15.595,12.682,28.277,28.277,28.277s28.277-12.683,28.277-28.277
		C506.6,463.931,493.918,451.248,478.323,451.248z"/>
</g>
<g>
	<path fill="#E8D3BB" d="M478.323,451.248c-15.596,0-28.277,12.683-28.277,28.278c0,15.595,12.682,28.277,28.277,28.277
		s28.277-12.683,28.277-28.277C506.6,463.931,493.918,451.248,478.323,451.248z"/>
	<path fill="#E8D3BB" d="M372.067,451.248c-15.596,0-28.277,12.683-28.277,28.278c0,15.595,12.682,28.277,28.277,28.277
		s28.277-12.683,28.277-28.277C400.344,463.931,387.662,451.248,372.067,451.248z"/>
</g>
<g>
	
		<rect x="295.99" y="473.197" transform="matrix(0.9784 0.2067 -0.2067 0.9784 105.1766 -55.1912)" fill="#261D17" width="41.474" height="5.141"/>
	
		<rect x="530.655" y="455.065" transform="matrix(0.2065 0.9785 -0.9785 0.2065 888.6766 -144.1749)" fill="#261D17" width="5.141" height="41.478"/>
</g>
<path fill="#E5A173" d="M470.953,582.183c0,4.456-20.395,16.281-45.759,16.281s-45.759-11.997-45.759-16.281
	c0-2.742,14.567-10.454,24.165-11.825c6.17-0.856,21.423,4.97,21.423,4.97s15.081-5.826,21.251-4.97
	C456.214,571.729,470.953,582.183,470.953,582.183z"/>
<path fill="#D89364" d="M470.953,582.183c0,4.456-20.395,21.251-45.759,21.251s-45.759-16.967-45.759-21.251
	c0,0,18.681,2.229,45.759,2.229S470.953,582.183,470.953,582.183z"/>
<g>
	<path fill="#E6E7E8" d="M288.948,451.763l4.799,47.301l6.684-3.257c-0.343-39.417,4.456-87.575,4.456-87.575l-29.649-0.171
		c-0.686,10.625-1.199,21.937-1.199,33.933c0,1.543,0,3.085,0,4.628C280.721,446.449,288.948,447.135,288.948,451.763z"/>
	<path fill="#E6E7E8" d="M561.442,451.763l-4.798,47.301l-6.685-3.257c0.343-39.417-4.455-87.575-4.455-87.575l29.648-0.171
		c0.686,10.625,1.199,21.937,1.199,33.933c0,1.543,0,3.085,0,4.628C569.668,446.449,561.442,447.135,561.442,451.763z"/>
</g>
<g>
	<path fill="#FFFFFF" d="M533.85,719.973L533.85,719.973L533.85,719.973L533.85,719.973z"/>
	<path fill="#FFFFFF" d="M511.571,717.402L511.571,717.402L511.571,717.402z"/>
</g>
</svg>
